<svg version="1.1" id="Layer_1" xmlns="http://www.w3.org/2000/svg" xmlns:xlink="http://www.w3.org/1999/xlink" x="0px" y="0px"
	 width="100%" viewBox="0 0 512 512" enable-background="new 0 0 512 512" xml:space="preserve">
<path fill="#000000" opacity="1.000000" stroke="none" 
	d="
M1.000000,175.000000 
	C1.000000,116.666664 1.000000,58.833332 1.000000,1.000000 
	C171.666672,1.000000 342.333344,1.000000 513.000000,1.000000 
	C513.000000,171.666672 513.000000,342.333344 513.000000,513.000000 
	C342.333344,513.000000 171.666672,513.000000 1.000000,513.000000 
	C1.000000,400.500000 1.000000,288.000000 1.000000,175.000000 
M136.665543,474.202271 
	C141.339035,476.792877 145.872711,479.691162 150.722031,481.894836 
	C156.552673,484.544464 162.651932,486.603058 169.085052,489.563019 
	C175.057678,491.551605 180.999985,493.637482 187.008667,495.510406 
	C204.161926,500.857056 221.787170,504.089600 239.671722,504.829010 
	C253.715698,505.409637 267.854889,504.762268 281.900513,503.861237 
	C291.779449,503.227509 301.730408,501.943237 311.372253,499.738403 
	C334.974579,494.341187 357.483887,485.910980 378.605286,473.854553 
	C401.105133,461.011261 421.421722,445.484070 439.548492,425.960724 
	C443.956757,420.845276 448.644287,415.942017 452.721954,410.575317 
	C465.924927,393.198669 477.244751,374.680206 485.806519,354.539978 
	C496.520020,329.338104 503.318512,303.053009 504.763916,275.782043 
	C505.907837,254.199677 505.574341,232.538513 501.158234,211.076691 
	C496.704773,189.433121 490.323364,168.537048 480.503448,148.054352 
	C475.972748,139.897308 471.942963,131.406265 466.783539,123.668427 
	C460.450226,114.169968 453.172943,105.300903 445.588715,95.942123 
	C430.633667,78.714386 414.110626,63.171326 395.002533,50.654190 
	C386.641571,45.177177 377.572083,40.773392 368.771057,35.980095 
	C364.311035,33.551048 359.732574,31.339485 354.835419,28.369965 
	C344.644287,24.800468 334.667664,20.309019 324.212067,17.876223 
	C308.280701,14.169351 292.112946,10.435863 275.871399,9.371462 
	C256.024597,8.070788 235.989609,8.184649 216.135513,11.861078 
	C198.952744,15.042849 182.088333,19.002342 165.308121,26.184481 
	C159.138733,29.002178 152.921371,31.720352 146.813339,34.665283 
	C140.580872,37.670197 134.455841,40.897881 128.041214,43.335472 
	C125.799133,40.159073 124.073708,36.391594 121.228775,33.904892 
	C105.976105,20.572805 81.696831,21.238413 69.265053,38.317383 
	C61.180779,49.423687 59.553471,61.516781 65.648163,74.105850 
	C68.102455,79.175400 71.179390,83.943512 73.351036,89.154228 
	C71.671791,91.165558 69.931862,93.129684 68.324074,95.196602 
	C62.204399,103.063881 55.349438,110.492622 50.214058,118.961365 
	C42.215408,132.151886 34.796326,145.778061 28.284513,159.756653 
	C23.878765,169.214264 21.452450,179.593979 17.470837,190.065308 
	C17.176374,191.325226 16.821709,192.574509 16.596664,193.846710 
	C14.053061,208.225922 10.102833,222.533936 9.344570,237.008484 
	C8.286126,257.213226 8.335692,277.523956 11.814024,297.748077 
	C15.737382,320.559753 22.271507,342.445953 32.137421,363.266846 
	C42.688435,385.533478 56.219913,405.935883 73.202652,424.738892 
	C82.831345,433.696960 91.910072,443.360199 102.241188,451.417664 
	C112.876724,459.712463 124.733154,466.441833 136.665543,474.202271 
z"/>
<path fill="#64A0FA" opacity="1.000000" stroke="none" 
	d="
M165.979553,25.861237 
	C182.088333,19.002342 198.952744,15.042849 216.135513,11.861078 
	C235.989609,8.184649 256.024597,8.070788 275.871399,9.371462 
	C292.112946,10.435863 308.280701,14.169351 324.212067,17.876223 
	C334.667664,20.309019 344.644287,24.800468 354.667297,28.876396 
	C337.047485,32.929695 319.585938,36.429592 302.158020,40.089561 
	C300.224823,40.495544 297.237030,41.450184 296.851807,42.768120 
	C293.982147,52.585918 291.645966,62.559639 289.019684,72.971100 
	C298.101685,74.472412 306.616852,75.233124 314.771576,77.369499 
	C329.467529,81.219543 343.604187,80.995476 357.376831,74.202393 
	C359.980072,72.918373 361.913696,73.606873 364.053741,75.503563 
	C371.035187,81.691078 378.321106,87.536491 385.265991,93.763214 
	C388.433746,96.603394 391.680328,97.893982 396.013672,97.842812 
	C411.004181,97.665810 425.999390,97.884392 441.162354,98.251297 
	C452.427826,115.850906 461.104279,134.322479 467.698181,153.870804 
	C460.703339,157.049133 454.010071,160.012573 447.135559,162.742889 
	C441.829254,154.000137 434.631165,148.173569 424.850952,145.979156 
	C410.164520,142.683914 398.497650,147.953247 388.627991,158.942001 
	C380.603363,157.194870 372.895599,155.791840 365.348877,153.783524 
	C362.907227,153.133774 360.199707,151.365921 358.792786,149.304749 
	C352.036530,139.406387 345.590179,129.290970 339.248199,119.118942 
	C337.466522,116.261253 335.516724,114.920906 332.046173,115.081039 
	C326.063202,115.357079 320.054535,115.037384 314.064697,115.224373 
	C311.984406,115.289307 309.687592,115.678398 307.898041,116.662224 
	C291.851227,125.484123 275.855682,134.402435 259.985413,143.536316 
	C258.648590,144.305679 257.472534,146.956268 257.674286,148.548874 
	C259.660431,164.227936 262.025513,179.858521 264.110168,195.525879 
	C264.624756,199.393417 266.214325,202.188995 269.277039,204.685593 
	C282.828735,215.732346 296.265167,226.923813 309.581512,238.253113 
	C312.080261,240.378983 314.128754,240.740997 317.172150,239.682129 
	C330.373260,235.089203 343.687561,230.821960 356.897339,226.253143 
	C359.870941,225.224686 361.655853,225.634247 363.561737,228.281937 
	C369.786774,236.930054 376.199677,245.447800 382.734985,253.864548 
	C384.541351,256.190948 384.617004,258.000183 383.282410,260.555328 
	C378.966980,268.817261 374.823151,277.172302 370.799988,285.580841 
	C369.830536,287.607056 369.097839,289.973938 369.078705,292.191254 
	C368.936401,308.678162 369.068329,325.167328 368.939026,341.654449 
	C368.916077,344.580200 369.914124,346.109253 372.547913,347.319153 
	C380.714478,351.070770 388.678131,355.271637 396.897339,358.897247 
	C400.237457,360.370636 401.157806,362.358459 401.066223,365.770752 
	C400.856201,373.592804 401.452759,381.458099 400.871857,389.242462 
	C400.298035,396.931885 401.342712,403.322601 408.912415,407.184906 
	C402.705383,413.179199 396.958313,419.227631 390.576263,424.508698 
	C373.584290,438.569183 354.933899,450.046997 334.804352,459.117310 
	C304.719299,472.673492 273.117462,479.713165 240.224136,480.951599 
	C217.846878,481.794098 195.802612,478.911224 173.926315,473.785797 
	C173.853882,473.565765 173.736954,473.117462 173.881439,472.750946 
	C176.995758,463.898071 180.195480,455.482483 182.837692,446.895325 
	C184.144333,442.648682 186.331039,440.310364 190.619751,438.920410 
	C202.495316,435.071686 214.182632,430.645905 226.015579,426.659576 
	C229.208725,425.583862 230.474899,423.987457 230.366516,420.545959 
	C230.125366,412.888733 230.463425,405.213165 230.216095,397.556335 
	C230.106445,394.162079 231.398773,392.460632 234.388336,391.139587 
	C243.374161,387.168823 252.301132,383.054077 261.133057,378.753174 
	C263.441711,377.628937 265.713470,375.944244 267.332275,373.968170 
	C276.622589,362.627380 285.770447,351.167725 294.798187,339.616699 
	C296.017365,338.056732 296.857391,335.768707 296.902069,333.795807 
	C297.117004,324.302948 296.903625,314.800964 297.055969,305.305664 
	C297.102722,302.392883 296.230988,300.838715 293.369202,299.818237 
	C285.372772,296.966797 277.403168,293.996796 269.613220,290.633057 
	C266.886383,289.455597 264.114838,287.429291 262.387207,285.048065 
	C252.703201,271.699951 243.271912,258.166382 233.906723,244.590958 
	C232.109741,241.986130 230.195389,240.894806 226.959427,240.923737 
	C209.131744,241.083115 191.300217,241.117569 173.474716,240.863327 
	C170.988983,240.827866 168.001602,239.536499 166.153366,237.839035 
	C159.777542,231.983322 153.756393,225.736130 147.706131,219.534668 
	C145.978317,217.763641 144.607697,217.134644 142.157639,218.511002 
	C120.085846,230.910324 97.913048,243.130066 75.868736,255.577576 
	C74.489738,256.356232 73.156837,258.589569 73.128578,260.169830 
	C72.905151,272.662872 73.087852,285.162659 72.940865,297.657990 
	C72.906837,300.550720 74.098984,301.801910 76.644737,302.641663 
	C81.860931,304.362366 86.931374,306.555084 92.198830,308.080292 
	C96.181000,309.233337 98.155533,311.376556 99.019524,315.481873 
	C100.835495,324.110535 103.281197,332.604797 105.233955,341.207458 
	C105.947830,344.352356 107.397957,345.964508 110.638603,346.690674 
	C119.734589,348.728912 128.736603,351.183014 137.811615,353.320526 
	C140.682098,353.996613 142.362961,355.295837 143.226791,358.300781 
	C145.019211,364.535919 147.559845,370.566132 149.154343,376.842804 
	C149.756470,379.213104 149.398987,382.550262 148.103973,384.561188 
	C140.168381,396.883850 131.939301,409.022766 123.567184,421.055328 
	C121.523994,423.991852 121.303726,426.471527 122.415382,429.780396 
	C125.648628,439.404205 128.523346,449.148499 131.172058,458.761841 
	C111.266548,449.944397 93.115501,438.973846 76.646378,425.253082 
	C75.734459,424.493347 74.198257,424.482910 72.952637,424.123718 
	C56.219913,405.935883 42.688435,385.533478 32.137421,363.266846 
	C22.271507,342.445953 15.737382,320.559753 11.814024,297.748077 
	C8.335692,277.523956 8.286126,257.213226 9.344570,237.008484 
	C10.102833,222.533936 14.053061,208.225922 16.596664,193.846710 
	C16.821709,192.574509 17.176374,191.325226 18.219452,189.915283 
	C30.014889,191.242676 41.097702,192.505219 52.083763,194.345413 
	C54.905079,194.817993 57.892612,196.630478 59.977200,198.671600 
	C64.006561,202.616928 68.001236,206.810349 71.012260,211.536758 
	C76.507423,220.162506 83.548462,222.595673 93.309433,219.968399 
	C99.617226,218.270599 106.275658,217.875488 113.000977,216.862869 
	C113.000977,213.713104 112.658424,211.175125 113.059555,208.760712 
	C114.914246,197.597092 112.074303,189.399475 99.983192,186.328995 
	C98.783913,186.024429 97.203384,184.108307 97.157196,182.888763 
	C96.888481,175.792953 97.025673,168.681793 97.025673,161.001114 
	C99.434105,161.001114 101.218811,161.001144 103.003517,161.001114 
	C112.994614,161.000961 122.988724,161.133820 132.974701,160.907700 
	C135.492783,160.850677 138.258972,160.128693 140.444229,158.889145 
	C154.197784,151.087769 167.883301,143.159561 181.414795,134.981232 
	C183.401123,133.780701 185.231308,131.223297 185.799606,128.958878 
	C188.795441,117.021744 191.437988,104.993271 194.026611,92.958527 
	C194.663193,89.998970 195.926361,88.874794 199.036880,88.935478 
	C208.524811,89.120598 218.018692,89.016464 227.510147,88.987076 
	C229.256104,88.981674 231.001511,88.799225 233.000092,88.683907 
	C233.000092,79.234650 232.810181,70.411346 233.091431,61.603088 
	C233.207565,57.965645 231.894913,56.642582 228.487640,56.120247 
	C215.663376,54.154282 202.830750,52.190121 190.095322,49.736946 
	C187.156143,49.170788 184.017960,47.194405 181.961807,44.956829 
	C176.351547,38.851543 171.270340,32.260094 165.979553,25.861237 
z"/>
<path fill="#50EC73" opacity="1.000000" stroke="none" 
	d="
M165.643829,26.022858 
	C171.270340,32.260094 176.351547,38.851543 181.961807,44.956829 
	C184.017960,47.194405 187.156143,49.170788 190.095322,49.736946 
	C202.830750,52.190121 215.663376,54.154282 228.487640,56.120247 
	C231.894913,56.642582 233.207565,57.965645 233.091431,61.603088 
	C232.810181,70.411346 233.000092,79.234650 233.000092,88.683907 
	C231.001511,88.799225 229.256104,88.981674 227.510147,88.987076 
	C218.018692,89.016464 208.524811,89.120598 199.036880,88.935478 
	C195.926361,88.874794 194.663193,89.998970 194.026611,92.958527 
	C191.437988,104.993271 188.795441,117.021744 185.799606,128.958878 
	C185.231308,131.223297 183.401123,133.780701 181.414795,134.981232 
	C167.883301,143.159561 154.197784,151.087769 140.444229,158.889145 
	C138.258972,160.128693 135.492783,160.850677 132.974701,160.907700 
	C122.988724,161.133820 112.994614,161.000961 103.003517,161.001114 
	C101.218811,161.001144 99.434105,161.001114 97.025673,161.001114 
	C97.025673,168.681793 96.888481,175.792953 97.157196,182.888763 
	C97.203384,184.108307 98.783913,186.024429 99.983192,186.328995 
	C112.074303,189.399475 114.914246,197.597092 113.059555,208.760712 
	C112.658424,211.175125 113.000977,213.713104 113.000977,216.862869 
	C106.275658,217.875488 99.617226,218.270599 93.309433,219.968399 
	C83.548462,222.595673 76.507423,220.162506 71.012260,211.536758 
	C68.001236,206.810349 64.006561,202.616928 59.977200,198.671600 
	C57.892612,196.630478 54.905079,194.817993 52.083763,194.345413 
	C41.097702,192.505219 30.014889,191.242676 18.554428,189.663239 
	C21.452450,179.593979 23.878765,169.214264 28.284513,159.756653 
	C34.796326,145.778061 42.215408,132.151886 50.214058,118.961365 
	C55.349438,110.492622 62.204399,103.063881 68.324074,95.196602 
	C69.931862,93.129684 71.671791,91.165558 74.017426,89.066696 
	C78.084961,93.580238 81.593346,98.106689 84.859932,102.801384 
	C88.887245,108.589355 92.713272,114.517380 97.099083,121.093842 
	C107.654427,104.994324 117.918243,89.900017 127.539909,74.406906 
	C131.794678,67.555748 132.081802,59.573521 130.318466,51.674637 
	C129.744263,49.102547 128.967743,46.575615 128.283768,44.028030 
	C134.455841,40.897881 140.580872,37.670197 146.813339,34.665283 
	C152.921371,31.720352 159.138733,29.002178 165.643829,26.022858 
z"/>
<path fill="#4592F4" opacity="1.000000" stroke="none" 
	d="
M173.998749,474.005829 
	C195.802612,478.911224 217.846878,481.794098 240.224136,480.951599 
	C273.117462,479.713165 304.719299,472.673492 334.804352,459.117310 
	C354.933899,450.046997 373.584290,438.569183 390.576263,424.508698 
	C396.958313,419.227631 402.705383,413.179199 409.143707,407.198914 
	C409.545471,406.917236 410.008728,406.951294 410.196686,407.231018 
	C414.056885,410.065033 417.673950,412.703552 421.414124,415.154144 
	C427.205200,418.948547 433.080353,422.614685 438.919830,426.335236 
	C421.421722,445.484070 401.105133,461.011261 378.605286,473.854553 
	C357.483887,485.910980 334.974579,494.341187 311.372253,499.738403 
	C301.730408,501.943237 291.779449,503.227509 281.900513,503.861237 
	C267.854889,504.762268 253.715698,505.409637 239.671722,504.829010 
	C221.787170,504.089600 204.161926,500.857056 187.008667,495.510406 
	C180.999985,493.637482 175.057678,491.551605 168.957977,488.871033 
	C170.553497,483.454620 172.276108,478.730225 173.998749,474.005829 
z"/>
<path fill="#5AC264" opacity="1.000000" stroke="none" 
	d="
M439.234161,426.147980 
	C433.080353,422.614685 427.205200,418.948547 421.414124,415.154144 
	C417.673950,412.703552 414.056885,410.065033 410.367126,406.949341 
	C418.508911,396.534546 427.235138,387.091949 434.727020,376.754791 
	C463.454346,337.117401 478.278809,292.429626 480.852722,243.744492 
	C482.132355,219.540237 479.448822,195.572128 473.265656,172.058105 
	C471.661407,165.957382 470.276642,159.798950 469.063812,153.451065 
	C473.181122,151.682007 477.025665,150.128922 480.870209,148.575836 
	C490.323364,168.537048 496.704773,189.433121 501.158234,211.076691 
	C505.574341,232.538513 505.907837,254.199677 504.763916,275.782043 
	C503.318512,303.053009 496.520020,329.338104 485.806519,354.539978 
	C477.244751,374.680206 465.924927,393.198669 452.721954,410.575317 
	C448.644287,415.942017 443.956757,420.845276 439.234161,426.147980 
z"/>
<path fill="#50EB74" opacity="1.000000" stroke="none" 
	d="
M440.992798,97.952393 
	C425.999390,97.884392 411.004181,97.665810 396.013672,97.842812 
	C391.680328,97.893982 388.433746,96.603394 385.265991,93.763214 
	C378.321106,87.536491 371.035187,81.691078 364.053741,75.503563 
	C361.913696,73.606873 359.980072,72.918373 357.376831,74.202393 
	C343.604187,80.995476 329.467529,81.219543 314.771576,77.369499 
	C306.616852,75.233124 298.101685,74.472412 289.019684,72.971100 
	C291.645966,62.559639 293.982147,52.585918 296.851807,42.768120 
	C297.237030,41.450184 300.224823,40.495544 302.158020,40.089561 
	C319.585938,36.429592 337.047485,32.929695 354.853394,29.206215 
	C359.732574,31.339485 364.311035,33.551048 368.771057,35.980095 
	C377.572083,40.773392 386.641571,45.177177 395.002533,50.654190 
	C414.110626,63.171326 430.633667,78.714386 445.782471,96.383026 
	C444.315094,97.200081 442.653961,97.576241 440.992798,97.952393 
z"/>
<path fill="#EF3B5A" opacity="1.000000" stroke="none" 
	d="
M128.162491,43.681751 
	C128.967743,46.575615 129.744263,49.102547 130.318466,51.674637 
	C132.081802,59.573521 131.794678,67.555748 127.539909,74.406906 
	C117.918243,89.900017 107.654427,104.994324 97.099083,121.093842 
	C92.713272,114.517380 88.887245,108.589355 84.859932,102.801384 
	C81.593346,98.106689 78.084961,93.580238 74.328384,88.913986 
	C71.179390,83.943512 68.102455,79.175400 65.648163,74.105850 
	C59.553471,61.516781 61.180779,49.423687 69.265053,38.317383 
	C81.696831,21.238413 105.976105,20.572805 121.228775,33.904892 
	C124.073708,36.391594 125.799133,40.159073 128.162491,43.681751 
M103.833641,61.101688 
	C105.910637,55.399982 104.204849,50.944630 99.344246,49.375820 
	C95.242393,48.051914 90.720467,50.360020 89.418365,54.587105 
	C88.245399,58.394981 89.453903,61.603306 92.749565,63.666595 
	C96.720032,66.152359 100.356880,65.231491 103.833641,61.101688 
z"/>
<path fill="#4693F4" opacity="1.000000" stroke="none" 
	d="
M441.162354,98.251305 
	C442.653961,97.576241 444.315094,97.200081 446.139984,96.491837 
	C453.172943,105.300903 460.450226,114.169968 466.783539,123.668427 
	C471.942963,131.406265 475.972748,139.897308 480.686829,148.315094 
	C477.025665,150.128922 473.181122,151.682007 468.866516,153.452698 
	C468.396423,153.670273 467.999786,153.655914 467.999786,153.655914 
	C461.104279,134.322479 452.427826,115.850906 441.162354,98.251305 
z"/>
<path fill="#5AC266" opacity="1.000000" stroke="none" 
	d="
M173.926300,473.785797 
	C172.276108,478.730225 170.553497,483.454620 168.732880,488.548279 
	C162.651932,486.603058 156.552673,484.544464 150.722031,481.894836 
	C145.872711,479.691162 141.339035,476.792877 136.323059,473.653870 
	C134.706055,468.728485 133.431549,464.351501 132.522797,460.004944 
	C134.426544,460.607269 135.943054,461.247253 137.505905,461.740326 
	C149.577881,465.548737 161.658798,469.328674 173.736954,473.117462 
	C173.736954,473.117462 173.853882,473.565765 173.926300,473.785797 
z"/>
<path fill="#4793F4" opacity="1.000000" stroke="none" 
	d="
M132.157043,459.974548 
	C133.431549,464.351501 134.706055,468.728485 136.017975,473.480804 
	C124.733154,466.441833 112.876724,459.712463 102.241188,451.417664 
	C91.910072,443.360199 82.831345,433.696960 73.077644,424.431305 
	C74.198257,424.482910 75.734459,424.493347 76.646378,425.253082 
	C93.115501,438.973846 111.266548,449.944397 131.297241,458.936279 
	C131.902344,459.458893 132.025009,459.718933 132.157043,459.974548 
z"/>
<path fill="#50EC72" opacity="1.000000" stroke="none" 
	d="
M467.698181,153.870804 
	C467.999786,153.655914 468.396423,153.670273 468.593750,153.668640 
	C470.276642,159.798950 471.661407,165.957382 473.265656,172.058105 
	C479.448822,195.572128 482.132355,219.540237 480.852722,243.744492 
	C478.278809,292.429626 463.454346,337.117401 434.727020,376.754791 
	C427.235138,387.091949 418.508911,396.534546 410.179138,406.669617 
	C410.008728,406.951294 409.545471,406.917236 409.314178,406.903198 
	C401.342712,403.322601 400.298035,396.931885 400.871857,389.242462 
	C401.452759,381.458099 400.856201,373.592804 401.066223,365.770752 
	C401.157806,362.358459 400.237457,360.370636 396.897339,358.897247 
	C388.678131,355.271637 380.714478,351.070770 372.547913,347.319153 
	C369.914124,346.109253 368.916077,344.580200 368.939026,341.654449 
	C369.068329,325.167328 368.936401,308.678162 369.078705,292.191254 
	C369.097839,289.973938 369.830536,287.607056 370.799988,285.580841 
	C374.823151,277.172302 378.966980,268.817261 383.282410,260.555328 
	C384.617004,258.000183 384.541351,256.190948 382.734985,253.864548 
	C376.199677,245.447800 369.786774,236.930054 363.561737,228.281937 
	C361.655853,225.634247 359.870941,225.224686 356.897339,226.253143 
	C343.687561,230.821960 330.373260,235.089203 317.172150,239.682129 
	C314.128754,240.740997 312.080261,240.378983 309.581512,238.253113 
	C296.265167,226.923813 282.828735,215.732346 269.277039,204.685593 
	C266.214325,202.188995 264.624756,199.393417 264.110168,195.525879 
	C262.025513,179.858521 259.660431,164.227936 257.674286,148.548874 
	C257.472534,146.956268 258.648590,144.305679 259.985413,143.536316 
	C275.855682,134.402435 291.851227,125.484123 307.898041,116.662224 
	C309.687592,115.678398 311.984406,115.289307 314.064697,115.224373 
	C320.054535,115.037384 326.063202,115.357079 332.046173,115.081039 
	C335.516724,114.920906 337.466522,116.261253 339.248199,119.118942 
	C345.590179,129.290970 352.036530,139.406387 358.792786,149.304749 
	C360.199707,151.365921 362.907227,153.133774 365.348877,153.783524 
	C372.895599,155.791840 380.603363,157.194870 388.534546,159.277802 
	C380.359131,173.318771 380.731964,186.711990 389.642975,199.975433 
	C397.907043,212.275894 406.087494,224.632507 414.327301,236.949326 
	C415.106812,238.114548 416.047119,239.172165 417.210022,240.660034 
	C426.235687,227.136475 434.720184,214.000031 443.646698,201.171143 
	C452.113678,189.002716 453.555481,176.425262 447.316833,162.976028 
	C454.010071,160.012573 460.703339,157.049133 467.698181,153.870804 
z"/>
<path fill="#50EC72" opacity="1.000000" stroke="none" 
	d="
M132.522797,460.004944 
	C132.025009,459.718933 131.902344,459.458893 131.663864,459.019958 
	C128.523346,449.148499 125.648628,439.404205 122.415382,429.780396 
	C121.303726,426.471527 121.523994,423.991852 123.567184,421.055328 
	C131.939301,409.022766 140.168381,396.883850 148.103973,384.561188 
	C149.398987,382.550262 149.756470,379.213104 149.154343,376.842804 
	C147.559845,370.566132 145.019211,364.535919 143.226791,358.300781 
	C142.362961,355.295837 140.682098,353.996613 137.811615,353.320526 
	C128.736603,351.183014 119.734589,348.728912 110.638603,346.690674 
	C107.397957,345.964508 105.947830,344.352356 105.233955,341.207458 
	C103.281197,332.604797 100.835495,324.110535 99.019524,315.481873 
	C98.155533,311.376556 96.181000,309.233337 92.198830,308.080292 
	C86.931374,306.555084 81.860931,304.362366 76.644737,302.641663 
	C74.098984,301.801910 72.906837,300.550720 72.940865,297.657990 
	C73.087852,285.162659 72.905151,272.662872 73.128578,260.169830 
	C73.156837,258.589569 74.489738,256.356232 75.868736,255.577576 
	C97.913048,243.130066 120.085846,230.910324 142.157639,218.511002 
	C144.607697,217.134644 145.978317,217.763641 147.706131,219.534668 
	C153.756393,225.736130 159.777542,231.983322 166.153366,237.839035 
	C168.001602,239.536499 170.988983,240.827866 173.474716,240.863327 
	C191.300217,241.117569 209.131744,241.083115 226.959427,240.923737 
	C230.195389,240.894806 232.109741,241.986130 233.906723,244.590958 
	C243.271912,258.166382 252.703201,271.699951 262.387207,285.048065 
	C264.114838,287.429291 266.886383,289.455597 269.613220,290.633057 
	C277.403168,293.996796 285.372772,296.966797 293.369202,299.818237 
	C296.230988,300.838715 297.102722,302.392883 297.055969,305.305664 
	C296.903625,314.800964 297.117004,324.302948 296.902069,333.795807 
	C296.857391,335.768707 296.017365,338.056732 294.798187,339.616699 
	C285.770447,351.167725 276.622589,362.627380 267.332275,373.968170 
	C265.713470,375.944244 263.441711,377.628937 261.133057,378.753174 
	C252.301132,383.054077 243.374161,387.168823 234.388336,391.139587 
	C231.398773,392.460632 230.106445,394.162079 230.216095,397.556335 
	C230.463425,405.213165 230.125366,412.888733 230.366516,420.545959 
	C230.474899,423.987457 229.208725,425.583862 226.015579,426.659576 
	C214.182632,430.645905 202.495316,435.071686 190.619751,438.920410 
	C186.331039,440.310364 184.144333,442.648682 182.837692,446.895325 
	C180.195480,455.482483 176.995758,463.898071 173.881439,472.750946 
	C161.658798,469.328674 149.577881,465.548737 137.505905,461.740326 
	C135.943054,461.247253 134.426544,460.607269 132.522797,460.004944 
M227.612259,337.102814 
	C228.916809,334.977325 230.376266,332.930542 231.502014,330.714264 
	C242.856415,308.360352 226.902100,281.442810 201.973236,281.057434 
	C188.544342,280.849823 178.036331,286.618744 171.379761,298.262238 
	C164.621445,310.083710 164.966064,322.267029 172.282639,333.755249 
	C180.770599,347.082764 189.744843,360.100769 198.527161,373.240295 
	C199.223938,374.282745 200.070236,375.225250 201.210602,376.677032 
	C210.074814,363.373566 218.630890,350.532562 227.612259,337.102814 
z"/>
<path fill="#EF3B5B" opacity="1.000000" stroke="none" 
	d="
M447.135559,162.742889 
	C453.555481,176.425262 452.113678,189.002716 443.646698,201.171143 
	C434.720184,214.000031 426.235687,227.136475 417.210022,240.660034 
	C416.047119,239.172165 415.106812,238.114548 414.327301,236.949326 
	C406.087494,224.632507 397.907043,212.275894 389.642975,199.975433 
	C380.731964,186.711990 380.359131,173.318771 388.913940,159.386871 
	C398.497650,147.953247 410.164520,142.683914 424.850952,145.979156 
	C434.631165,148.173569 441.829254,154.000137 447.135559,162.742889 
M423.396667,172.264740 
	C418.744202,168.100784 414.078339,167.921295 410.892303,171.931259 
	C408.292236,175.203720 408.284271,178.676331 410.838409,181.992874 
	C413.302216,185.192093 417.811218,186.037521 421.121704,183.766418 
	C425.120087,181.023361 426.067993,177.308945 423.396667,172.264740 
z"/>
<path fill="#F2EEF7" opacity="1.000000" stroke="none" 
	d="
M103.610504,61.419456 
	C100.356880,65.231491 96.720032,66.152359 92.749565,63.666595 
	C89.453903,61.603306 88.245399,58.394981 89.418365,54.587105 
	C90.720467,50.360020 95.242393,48.051914 99.344246,49.375820 
	C104.204849,50.944630 105.910637,55.399982 103.610504,61.419456 
z"/>
<path fill="#EF3B5A" opacity="1.000000" stroke="none" 
	d="
M227.399612,337.397186 
	C218.630890,350.532562 210.074814,363.373566 201.210602,376.677032 
	C200.070236,375.225250 199.223938,374.282745 198.527161,373.240295 
	C189.744843,360.100769 180.770599,347.082764 172.282639,333.755249 
	C164.966064,322.267029 164.621445,310.083710 171.379761,298.262238 
	C178.036331,286.618744 188.544342,280.849823 201.973236,281.057434 
	C226.902100,281.442810 242.856415,308.360352 231.502014,330.714264 
	C230.376266,332.930542 228.916809,334.977325 227.399612,337.397186 
M196.259094,306.595673 
	C192.097458,311.244720 191.924194,315.910248 195.935883,319.099487 
	C199.211044,321.703186 202.678543,321.709442 205.994766,319.151093 
	C209.186478,316.688782 210.033112,312.170013 207.765732,308.865692 
	C205.020096,304.864380 201.301834,303.931763 196.259094,306.595673 
z"/>
<path fill="#F2EEF7" opacity="1.000000" stroke="none" 
	d="
M423.618744,172.584015 
	C426.067993,177.308945 425.120087,181.023361 421.121704,183.766418 
	C417.811218,186.037521 413.302216,185.192093 410.838409,181.992874 
	C408.284271,178.676331 408.292236,175.203720 410.892303,171.931259 
	C414.078339,167.921295 418.744202,168.100784 423.618744,172.584015 
z"/>
<path fill="#F2EEF7" opacity="1.000000" stroke="none" 
	d="
M196.579041,306.373962 
	C201.301834,303.931763 205.020096,304.864380 207.765732,308.865692 
	C210.033112,312.170013 209.186478,316.688782 205.994766,319.151093 
	C202.678543,321.709442 199.211044,321.703186 195.935883,319.099487 
	C191.924194,315.910248 192.097458,311.244720 196.579041,306.373962 
z"/>
</svg>